<svg xmlns="http://www.w3.org/2000/svg" width="32" height="32" viewBox="0 0 32 32">
  <!-- Neomorphic background with rounded corners -->
  <defs>
    <linearGradient id="neoBg" x1="0%" y1="0%" x2="100%" y2="100%">
      <stop offset="0%" stop-color="#f5f5f7" />
      <stop offset="100%" stop-color="#e8e8ec" />
    </linearGradient>
    <filter id="shadow" x="-20%" y="-20%" width="140%" height="140%">
      <feDropShadow dx="2" dy="2" stdDeviation="1" flood-color="#a0a0a8" flood-opacity="0.3"/>
      <feDropShadow dx="-2" dy="-2" stdDeviation="1" flood-color="#ffffff" flood-opacity="0.5"/>
    </filter>
  </defs>

  <!-- Rounded neomorphic background -->
  <rect width="32" height="32" fill="url(#neoBg)" rx="8" filter="url(#shadow)" />
  
  <!-- Plane icon -->
  <path d="M24 14.5c0 0.5-0.3 1-0.8 1.2l-12 5c-0.1 0-0.2 0.1-0.2 0.1-0.4 0-0.8-0.3-1-0.7v0l-2-6 2.5-2.5 7.5-1.5v-2.1c0-0.8 0.7-1.5 1.5-1.5s1.5 0.7 1.5 1.5v2.1l2 1c0.6 0.3 1 0.9 1 1.5v1.9z" fill="#60A5E6" />
</svg>
