<?xml version="1.0" encoding="UTF-8" standalone="no"?>
<svg
   width="800"
   height="500"
   viewBox="0 0 800 500"
   fill="none"
   stroke="currentColor"
   stroke-width="3"
   version="1.1"
   id="svg1"
   xmlns="http://www.w3.org/2000/svg">
  <path
     d="M 155,135 C 142,140 128,145 120,151 C 106,161 98,175 94,190 C 91,200 90,210 91,220 C 93,235 94,242 96,246 C 100,255 105,262 113,268 C 119,273 124,275 133,277 C 145,280 156,279 167,274 C 172,272 182,267 182,267 L 193,262 C 193,262 198,259 200,257 C 203,255 208,249 208,249 L 217,239 C 217,239 223,233 226,231 C 232,228 240,226 240,226 L 257,226 C 257,226 265,226 269,226 C 278,226 286,223 294,218 C 300,214 305,210 309,204 C 315,195 318,186 318,174 C 318,167 317,164 314,156 C 312,151 308,148 304,143 C 297,137 292,135 283,133 C 276,131 271,131 263,131 C 257,132 250,133 243,135 C 236,138 230,138 222,142 C 215,146 212,147 206,152 C 196,158 186,164 176,170 C 174,171 172,173 170,175 C 161,181 148,178 143,169 C 139,163 142,156 149,153 C 150,152 151,152 153,151 L 156,150"
     id="maine"
     style="fill:none;stroke:currentColor;stroke-width:2;stroke-dasharray:none" />
  
  <path
     d="M 169,267 C 172,259 176,250 180,241 C 184,233 189,224 194,217 C 198,210 204,203 210,197 C 216,192 223,188 230,184 C 237,180 245,177 252,175 C 260,173 268,172 276,172 C 284,172 292,173 300,175 C 308,177 316,180 323,184 C 330,188 337,193 343,198 C 349,204 355,211 359,218 C 364,225 367,233 370,241 C 372,249 374,257 374,265 C 374,274 373,282 371,290 C 369,298 366,305 362,312 C 358,319 353,326 347,331 C 341,337 334,341 327,345 C 320,349 312,352 304,354 C 296,356 288,357 280,357 C 272,357 264,356 256,354 C 248,352 240,349 233,345 C 226,341 219,336 213,331 C 207,325 202,319 197,312 C 193,305 189,298 186,290 C 183,282 181,274 179,265 C 174,256 169,267 169,267 Z"
     id="florida"
     style="fill:none;stroke:currentColor;stroke-width:2;stroke-dasharray:none" />
  
  <path
     d="M 106,139 C 114,132 122,126 131,120 C 140,114 150,109 160,105 C 170,101 181,98 192,95 C 203,93 214,91 225,91 C 237,91 248,92 259,94 C 270,97 281,100 291,105 C 301,109 311,114 320,120 C 329,126 338,132 346,140 C 353,147 360,155 366,163 C 372,172 377,181 381,190 C 385,200 388,210 390,220 C 392,230 393,241 393,251 C 393,262 392,272 390,283 C 388,293 385,303 381,313 C 377,322 372,331 366,340 C 360,348 353,356 346,363 C 338,370 329,376 320,382 C 311,388 301,393 291,397 C 281,401 270,404 259,407 C 248,409 237,410 225,410 C 214,410 203,409 192,407 C 181,404 170,401 160,397 C 150,393 140,388 131,382 C 122,376 114,369 106,363 C 99,356 92,348 86,340 C 80,331 75,322 71,313 C 67,303 64,293 62,283 C 60,272 59,262 59,251 C 59,241 60,230 62,220 C 64,210 67,200 71,190 C 75,181 80,172 86,163 C 92,155 99,147 106,139 Z"
     id="texas"
     style="fill:none;stroke:currentColor;stroke-width:2;stroke-dasharray:none" />
  
  <path
     d="M 426,102 C 434,95 443,90 452,85 C 461,81 471,77 481,74 C 491,71 501,69 512,68 C 522,67 533,67 543,68 C 554,69 564,71 574,74 C 584,77 594,81 603,85 C 612,90 621,95 629,102 C 636,108 643,115 649,123 C 655,131 660,139 664,148 C 668,156 671,166 673,175 C 675,184 676,194 676,204 C 676,213 675,223 673,233 C 671,242 668,251 664,260 C 660,269 655,277 649,285 C 643,292 636,299 629,306 C 621,312 612,317 603,322 C 594,326 584,330 574,333 C 564,336 554,338 543,339 C 533,340 522,340 512,339 C 501,338 491,336 481,333 C 471,330 461,326 452,322 C 443,317 434,312 426,306 C 419,299 412,292 406,285 C 400,277 395,269 391,260 C 387,251 384,242 382,233 C 380,223 379,213 379,204 C 379,194 380,184 382,175 C 384,166 387,156 391,148 C 395,139 400,131 406,123 C 412,115 419,108 426,102 Z"
     id="cali"
     style="fill:none;stroke:currentColor;stroke-width:2;stroke-dasharray:none" />

  <path
     d="M 570,61 C 583,121 599,183 619,195 C 629,201 643,206 643,206"
     id="path2"
     style="fill:none;stroke:currentColor;stroke-width:2;stroke-dasharray:none" />

  <path
     d="M 643,206 C 643,206 656,261 662,276 C 668,291 702,306 702,306 C 702,306 722,301 735,310 C 748,319 760,342 760,342"
     id="path3"
     style="fill:none;stroke:currentColor;stroke-width:2;stroke-dasharray:none" />

  <path
     d="m 59,251 c 0,0 23,52 71,87 48,35 117,70 145,75 28,5 59,10 102,0 43,-10 148,-41 148,-41"
     id="path4"
     style="fill:none;stroke:currentColor;stroke-width:2;stroke-dasharray:none" />

  <path
     d="m 525,372 c 0,0 87,-78 125,-106 38,-28 106,-62 106,-62"
     id="path5"
     style="fill:none;stroke:currentColor;stroke-width:2;stroke-dasharray:none" />

  <path
     d="m 756,204 c 0,0 -94,-29 -122,-42 -28,-13 -43,-20 -57,-30 -14,-10 -33,-27 -40,-34 -7,-7 -34,-40 -34,-40"
     id="path6"
     style="fill:none;stroke:currentColor;stroke-width:2;stroke-dasharray:none" />

  <path
     d="m 503,58 c 0,0 -77,19 -115,31 -38,12 -117,42 -117,42"
     id="path7"
     style="fill:none;stroke:currentColor;stroke-width:2;stroke-dasharray:none" />

  <path
     d="m 271,131 c 0,0 45,-20 87,-29 42,-9 112,-12 112,-12"
     id="path8"
     style="fill:none;stroke:currentColor;stroke-width:2;stroke-dasharray:none" />

  <path
     d="m 470,90 c 0,0 -4,61 1,92 5,31 15,101 15,101"
     id="path9"
     style="fill:none;stroke:currentColor;stroke-width:2;stroke-dasharray:none" />

  <path
     d="m 486,283 c 0,0 71,54 94,68 23,14 33,21 33,21"
     id="path10"
     style="fill:none;stroke:currentColor;stroke-width:2;stroke-dasharray:none" />

  <path
     d="m 613,372 c 0,0 51,-24 74,-35 23,-11 73,-35 73,-35"
     id="path11"
     style="fill:none;stroke:currentColor;stroke-width:2;stroke-dasharray:none" />

  <path
     d="m 293,121 c 0,0 52,46 85,68 33,22 100,64 100,64"
     id="path12"
     style="fill:none;stroke:currentColor;stroke-width:2;stroke-dasharray:none" />

  <path
     d="m 59,251 c 0,0 97,-72 134,-95 37,-23 100,-55 100,-55"
     id="path13"
     style="fill:none;stroke:currentColor;stroke-width:2;stroke-dasharray:none" />

  <path
     d="m 270,131 c 0,0 -39,32 -62,58 -23,26 -49,62 -49,62"
     id="path14"
     style="fill:none;stroke:currentColor;stroke-width:2;stroke-dasharray:none" />
</svg> 